STARTFONT 2.1
COMMENT Recovered from search.qfasl (MIT CADR System 46 serialized QFASL FONT object)
FONT MIT-CADR-QFASL-SEARCH
SIZE 12 72 72
FONTBOUNDINGBOX 97 9 -1 -1
STARTPROPERTIES 2
FONT_ASCENT 8
FONT_DESCENT 4
ENDPROPERTIES
CHARS 128
STARTCHAR C0000
ENCODING -1 0
SWIDTH 1167 0
DWIDTH 14 0
BBX 32 9 0 -1
BITMAP
0FC00000
10200000
21100000
42080000
82040000
42080000
21100000
10200000
0FC00000
ENDCHAR
STARTCHAR C0001
ENCODING -1 1
SWIDTH 1167 0
DWIDTH 14 0
BBX 32 9 0 -1
BITMAP
0FC00000
10200000
22100000
41080000
81040000
41080000
22100000
10200000
0FC00000
ENDCHAR
STARTCHAR C0002
ENCODING -1 2
SWIDTH 1833 0
DWIDTH 22 0
BBX 32 9 0 -1
BITMAP
0FFFC000
10002000
218F1000
42490800
824F0400
424A0800
21891000
10002000
0FFFC000
ENDCHAR
STARTCHAR C0003
ENCODING -1 3
SWIDTH 2333 0
DWIDTH 28 0
BBX 32 9 0 -1
BITMAP
0FFFFF00
10000080
21893840
42492420
83CD2410
424B2420
22493840
10000080
0FFFFF00
ENDCHAR
STARTCHAR C0004
ENCODING -1 4
SWIDTH 2250 0
DWIDTH 27 0
BBX 32 9 0 -1
BITMAP
0FFFFE00
10000100
22463880
42491040
83491020
42C91040
22461080
10000100
0FFFFE00
ENDCHAR
STARTCHAR C0005
ENCODING -1 5
SWIDTH 5667 0
DWIDTH 68 0
BBX 96 9 -1 -1
BITMAP
0FFFFFFFFFFFFFFF80000000
100000000000000040000000
22249CE78E78C39E20000000
422488441049241010000000
82A788470C79E41C08000000
42A488440241241010000000
23E49C479C41239E20000000
100000000000000040000000
0FFFFFFFFFFFFFFF80000000
ENDCHAR
STARTCHAR C0006
ENCODING -1 6
SWIDTH 2917 0
DWIDTH 35 0
BBX 64 9 0 -1
BITMAP
0FFFFFFE00000000
1000000100000000
21C63E7880000000
42092A4040000000
81892A7020000000
4049224040000000
2386227880000000
1000000100000000
0FFFFFFE00000000
ENDCHAR
STARTCHAR C0007
ENCODING -1 7
SWIDTH 5167 0
DWIDTH 62 0
BBX 64 9 0 -1
BITMAP
0FFFFFFFFFFFFFC0
1000000000000020
238F20E7CE73CF10
4248204544220908
824E204544238F04
4248204444220A08
238F3CE44E23C910
1000000000000020
0FFFFFFFFFFFFFC0
ENDCHAR
STARTCHAR C0008
ENCODING -1 8
SWIDTH 5667 0
DWIDTH 68 0
BBX 96 9 0 -1
BITMAP
0FFFFFFFFFFFFFFF00000000
100000000000000080000000
21883C918E3CE71C40000000
424824924920422020000000
83C83CF3CE38422010000000
424820924920422020000000
224F20924E3C471C40000000
100000000000000080000000
0FFFFFFFFFFFFFFF00000000
ENDCHAR
STARTCHAR C0009
ENCODING -1 9
SWIDTH 2250 0
DWIDTH 27 0
BBX 32 9 0 -1
BITMAP
0FFFFE00
10000100
21892880
42492840
83CD1020
424B1040
22491080
10000100
0FFFFE00
ENDCHAR
STARTCHAR C000A
ENCODING -1 10
SWIDTH 0 0
DWIDTH 0 0
BBX 0 9 0 -1
BITMAP
00
00
00
00
00
00
00
00
00
ENDCHAR
STARTCHAR C000B
ENCODING -1 11
SWIDTH 0 0
DWIDTH 0 0
BBX 0 9 0 -1
BITMAP
00
00
00
00
00
00
00
00
00
ENDCHAR
STARTCHAR C000C
ENCODING -1 12
SWIDTH 0 0
DWIDTH 0 0
BBX 0 9 0 -1
BITMAP
00
00
00
00
00
00
00
00
00
ENDCHAR
STARTCHAR C000D
ENCODING -1 13
SWIDTH 0 0
DWIDTH 0 0
BBX 0 9 0 -1
BITMAP
00
00
00
00
00
00
00
00
00
ENDCHAR
STARTCHAR C000E
ENCODING -1 14
SWIDTH 0 0
DWIDTH 0 0
BBX 0 9 0 -1
BITMAP
00
00
00
00
00
00
00
00
00
ENDCHAR
STARTCHAR C000F
ENCODING -1 15
SWIDTH 0 0
DWIDTH 0 0
BBX 0 9 0 -1
BITMAP
00
00
00
00
00
00
00
00
00
ENDCHAR
STARTCHAR C0010
ENCODING -1 16
SWIDTH 0 0
DWIDTH 0 0
BBX 0 9 0 -1
BITMAP
00
00
00
00
00
00
00
00
00
ENDCHAR
STARTCHAR C0011
ENCODING -1 17
SWIDTH 0 0
DWIDTH 0 0
BBX 0 9 0 -1
BITMAP
00
00
00
00
00
00
00
00
00
ENDCHAR
STARTCHAR C0012
ENCODING -1 18
SWIDTH 0 0
DWIDTH 0 0
BBX 0 9 0 -1
BITMAP
00
00
00
00
00
00
00
00
00
ENDCHAR
STARTCHAR C0013
ENCODING -1 19
SWIDTH 0 0
DWIDTH 0 0
BBX 0 9 0 -1
BITMAP
00
00
00
00
00
00
00
00
00
ENDCHAR
STARTCHAR C0014
ENCODING -1 20
SWIDTH 0 0
DWIDTH 0 0
BBX 0 9 0 -1
BITMAP
00
00
00
00
00
00
00
00
00
ENDCHAR
STARTCHAR C0015
ENCODING -1 21
SWIDTH 0 0
DWIDTH 0 0
BBX 0 9 0 -1
BITMAP
00
00
00
00
00
00
00
00
00
ENDCHAR
STARTCHAR C0016
ENCODING -1 22
SWIDTH 0 0
DWIDTH 0 0
BBX 0 9 0 -1
BITMAP
00
00
00
00
00
00
00
00
00
ENDCHAR
STARTCHAR C0017
ENCODING -1 23
SWIDTH 0 0
DWIDTH 0 0
BBX 0 9 0 -1
BITMAP
00
00
00
00
00
00
00
00
00
ENDCHAR
STARTCHAR C0018
ENCODING -1 24
SWIDTH 0 0
DWIDTH 0 0
BBX 0 9 0 -1
BITMAP
00
00
00
00
00
00
00
00
00
ENDCHAR
STARTCHAR C0019
ENCODING -1 25
SWIDTH 0 0
DWIDTH 0 0
BBX 0 9 0 -1
BITMAP
00
00
00
00
00
00
00
00
00
ENDCHAR
STARTCHAR C001A
ENCODING -1 26
SWIDTH 0 0
DWIDTH 0 0
BBX 0 9 0 -1
BITMAP
00
00
00
00
00
00
00
00
00
ENDCHAR
STARTCHAR C001B
ENCODING -1 27
SWIDTH 0 0
DWIDTH 0 0
BBX 0 9 0 -1
BITMAP
00
00
00
00
00
00
00
00
00
ENDCHAR
STARTCHAR C001C
ENCODING -1 28
SWIDTH 0 0
DWIDTH 0 0
BBX 0 9 0 -1
BITMAP
00
00
00
00
00
00
00
00
00
ENDCHAR
STARTCHAR C001D
ENCODING -1 29
SWIDTH 0 0
DWIDTH 0 0
BBX 0 9 0 -1
BITMAP
00
00
00
00
00
00
00
00
00
ENDCHAR
STARTCHAR C001E
ENCODING -1 30
SWIDTH 0 0
DWIDTH 0 0
BBX 0 9 0 -1
BITMAP
00
00
00
00
00
00
00
00
00
ENDCHAR
STARTCHAR C001F
ENCODING -1 31
SWIDTH 0 0
DWIDTH 0 0
BBX 0 9 0 -1
BITMAP
00
00
00
00
00
00
00
00
00
ENDCHAR
STARTCHAR C0020
ENCODING -1 32
SWIDTH 0 0
DWIDTH 0 0
BBX 0 9 0 -1
BITMAP
00
00
00
00
00
00
00
00
00
ENDCHAR
STARTCHAR C0021
ENCODING -1 33
SWIDTH 0 0
DWIDTH 0 0
BBX 0 9 0 -1
BITMAP
00
00
00
00
00
00
00
00
00
ENDCHAR
STARTCHAR C0022
ENCODING -1 34
SWIDTH 0 0
DWIDTH 0 0
BBX 0 9 0 -1
BITMAP
00
00
00
00
00
00
00
00
00
ENDCHAR
STARTCHAR C0023
ENCODING -1 35
SWIDTH 0 0
DWIDTH 0 0
BBX 0 9 0 -1
BITMAP
00
00
00
00
00
00
00
00
00
ENDCHAR
STARTCHAR C0024
ENCODING -1 36
SWIDTH 0 0
DWIDTH 0 0
BBX 0 9 0 -1
BITMAP
00
00
00
00
00
00
00
00
00
ENDCHAR
STARTCHAR C0025
ENCODING -1 37
SWIDTH 0 0
DWIDTH 0 0
BBX 0 9 0 -1
BITMAP
00
00
00
00
00
00
00
00
00
ENDCHAR
STARTCHAR C0026
ENCODING -1 38
SWIDTH 0 0
DWIDTH 0 0
BBX 0 9 0 -1
BITMAP
00
00
00
00
00
00
00
00
00
ENDCHAR
STARTCHAR C0027
ENCODING -1 39
SWIDTH 0 0
DWIDTH 0 0
BBX 0 9 0 -1
BITMAP
00
00
00
00
00
00
00
00
00
ENDCHAR
STARTCHAR C0028
ENCODING -1 40
SWIDTH 0 0
DWIDTH 0 0
BBX 0 9 0 -1
BITMAP
00
00
00
00
00
00
00
00
00
ENDCHAR
STARTCHAR C0029
ENCODING -1 41
SWIDTH 0 0
DWIDTH 0 0
BBX 0 9 0 -1
BITMAP
00
00
00
00
00
00
00
00
00
ENDCHAR
STARTCHAR C002A
ENCODING -1 42
SWIDTH 0 0
DWIDTH 0 0
BBX 0 9 0 -1
BITMAP
00
00
00
00
00
00
00
00
00
ENDCHAR
STARTCHAR C002B
ENCODING -1 43
SWIDTH 0 0
DWIDTH 0 0
BBX 0 9 0 -1
BITMAP
00
00
00
00
00
00
00
00
00
ENDCHAR
STARTCHAR C002C
ENCODING -1 44
SWIDTH 0 0
DWIDTH 0 0
BBX 0 9 0 -1
BITMAP
00
00
00
00
00
00
00
00
00
ENDCHAR
STARTCHAR C002D
ENCODING -1 45
SWIDTH 0 0
DWIDTH 0 0
BBX 0 9 0 -1
BITMAP
00
00
00
00
00
00
00
00
00
ENDCHAR
STARTCHAR C002E
ENCODING -1 46
SWIDTH 0 0
DWIDTH 0 0
BBX 0 9 0 -1
BITMAP
00
00
00
00
00
00
00
00
00
ENDCHAR
STARTCHAR C002F
ENCODING -1 47
SWIDTH 0 0
DWIDTH 0 0
BBX 0 9 0 -1
BITMAP
00
00
00
00
00
00
00
00
00
ENDCHAR
STARTCHAR C0030
ENCODING -1 48
SWIDTH 0 0
DWIDTH 0 0
BBX 0 9 0 -1
BITMAP
00
00
00
00
00
00
00
00
00
ENDCHAR
STARTCHAR C0031
ENCODING -1 49
SWIDTH 0 0
DWIDTH 0 0
BBX 0 9 0 -1
BITMAP
00
00
00
00
00
00
00
00
00
ENDCHAR
STARTCHAR C0032
ENCODING -1 50
SWIDTH 0 0
DWIDTH 0 0
BBX 0 9 0 -1
BITMAP
00
00
00
00
00
00
00
00
00
ENDCHAR
STARTCHAR C0033
ENCODING -1 51
SWIDTH 0 0
DWIDTH 0 0
BBX 0 9 0 -1
BITMAP
00
00
00
00
00
00
00
00
00
ENDCHAR
STARTCHAR C0034
ENCODING -1 52
SWIDTH 0 0
DWIDTH 0 0
BBX 0 9 0 -1
BITMAP
00
00
00
00
00
00
00
00
00
ENDCHAR
STARTCHAR C0035
ENCODING -1 53
SWIDTH 0 0
DWIDTH 0 0
BBX 0 9 0 -1
BITMAP
00
00
00
00
00
00
00
00
00
ENDCHAR
STARTCHAR C0036
ENCODING -1 54
SWIDTH 0 0
DWIDTH 0 0
BBX 0 9 0 -1
BITMAP
00
00
00
00
00
00
00
00
00
ENDCHAR
STARTCHAR C0037
ENCODING -1 55
SWIDTH 0 0
DWIDTH 0 0
BBX 0 9 0 -1
BITMAP
00
00
00
00
00
00
00
00
00
ENDCHAR
STARTCHAR C0038
ENCODING -1 56
SWIDTH 0 0
DWIDTH 0 0
BBX 0 9 0 -1
BITMAP
00
00
00
00
00
00
00
00
00
ENDCHAR
STARTCHAR C0039
ENCODING -1 57
SWIDTH 0 0
DWIDTH 0 0
BBX 0 9 0 -1
BITMAP
00
00
00
00
00
00
00
00
00
ENDCHAR
STARTCHAR C003A
ENCODING -1 58
SWIDTH 0 0
DWIDTH 0 0
BBX 0 9 0 -1
BITMAP
00
00
00
00
00
00
00
00
00
ENDCHAR
STARTCHAR C003B
ENCODING -1 59
SWIDTH 0 0
DWIDTH 0 0
BBX 0 9 0 -1
BITMAP
00
00
00
00
00
00
00
00
00
ENDCHAR
STARTCHAR C003C
ENCODING -1 60
SWIDTH 0 0
DWIDTH 0 0
BBX 0 9 0 -1
BITMAP
00
00
00
00
00
00
00
00
00
ENDCHAR
STARTCHAR C003D
ENCODING -1 61
SWIDTH 0 0
DWIDTH 0 0
BBX 0 9 0 -1
BITMAP
00
00
00
00
00
00
00
00
00
ENDCHAR
STARTCHAR C003E
ENCODING -1 62
SWIDTH 0 0
DWIDTH 0 0
BBX 0 9 0 -1
BITMAP
00
00
00
00
00
00
00
00
00
ENDCHAR
STARTCHAR C003F
ENCODING -1 63
SWIDTH 0 0
DWIDTH 0 0
BBX 0 9 0 -1
BITMAP
00
00
00
00
00
00
00
00
00
ENDCHAR
STARTCHAR C0040
ENCODING -1 64
SWIDTH 0 0
DWIDTH 0 0
BBX 0 9 0 -1
BITMAP
00
00
00
00
00
00
00
00
00
ENDCHAR
STARTCHAR C0041
ENCODING -1 65
SWIDTH 0 0
DWIDTH 0 0
BBX 0 9 0 -1
BITMAP
00
00
00
00
00
00
00
00
00
ENDCHAR
STARTCHAR C0042
ENCODING -1 66
SWIDTH 0 0
DWIDTH 0 0
BBX 0 9 0 -1
BITMAP
00
00
00
00
00
00
00
00
00
ENDCHAR
STARTCHAR C0043
ENCODING -1 67
SWIDTH 0 0
DWIDTH 0 0
BBX 0 9 0 -1
BITMAP
00
00
00
00
00
00
00
00
00
ENDCHAR
STARTCHAR C0044
ENCODING -1 68
SWIDTH 0 0
DWIDTH 0 0
BBX 0 9 0 -1
BITMAP
00
00
00
00
00
00
00
00
00
ENDCHAR
STARTCHAR C0045
ENCODING -1 69
SWIDTH 0 0
DWIDTH 0 0
BBX 0 9 0 -1
BITMAP
00
00
00
00
00
00
00
00
00
ENDCHAR
STARTCHAR C0046
ENCODING -1 70
SWIDTH 0 0
DWIDTH 0 0
BBX 0 9 0 -1
BITMAP
00
00
00
00
00
00
00
00
00
ENDCHAR
STARTCHAR C0047
ENCODING -1 71
SWIDTH 0 0
DWIDTH 0 0
BBX 0 9 0 -1
BITMAP
00
00
00
00
00
00
00
00
00
ENDCHAR
STARTCHAR C0048
ENCODING -1 72
SWIDTH 0 0
DWIDTH 0 0
BBX 0 9 0 -1
BITMAP
00
00
00
00
00
00
00
00
00
ENDCHAR
STARTCHAR C0049
ENCODING -1 73
SWIDTH 0 0
DWIDTH 0 0
BBX 0 9 0 -1
BITMAP
00
00
00
00
00
00
00
00
00
ENDCHAR
STARTCHAR C004A
ENCODING -1 74
SWIDTH 0 0
DWIDTH 0 0
BBX 0 9 0 -1
BITMAP
00
00
00
00
00
00
00
00
00
ENDCHAR
STARTCHAR C004B
ENCODING -1 75
SWIDTH 0 0
DWIDTH 0 0
BBX 0 9 0 -1
BITMAP
00
00
00
00
00
00
00
00
00
ENDCHAR
STARTCHAR C004C
ENCODING -1 76
SWIDTH 0 0
DWIDTH 0 0
BBX 0 9 0 -1
BITMAP
00
00
00
00
00
00
00
00
00
ENDCHAR
STARTCHAR C004D
ENCODING -1 77
SWIDTH 0 0
DWIDTH 0 0
BBX 0 9 0 -1
BITMAP
00
00
00
00
00
00
00
00
00
ENDCHAR
STARTCHAR C004E
ENCODING -1 78
SWIDTH 0 0
DWIDTH 0 0
BBX 0 9 0 -1
BITMAP
00
00
00
00
00
00
00
00
00
ENDCHAR
STARTCHAR C004F
ENCODING -1 79
SWIDTH 0 0
DWIDTH 0 0
BBX 0 9 0 -1
BITMAP
00
00
00
00
00
00
00
00
00
ENDCHAR
STARTCHAR C0050
ENCODING -1 80
SWIDTH 0 0
DWIDTH 0 0
BBX 0 9 0 -1
BITMAP
00
00
00
00
00
00
00
00
00
ENDCHAR
STARTCHAR C0051
ENCODING -1 81
SWIDTH 0 0
DWIDTH 0 0
BBX 0 9 0 -1
BITMAP
00
00
00
00
00
00
00
00
00
ENDCHAR
STARTCHAR C0052
ENCODING -1 82
SWIDTH 0 0
DWIDTH 0 0
BBX 0 9 0 -1
BITMAP
00
00
00
00
00
00
00
00
00
ENDCHAR
STARTCHAR C0053
ENCODING -1 83
SWIDTH 0 0
DWIDTH 0 0
BBX 0 9 0 -1
BITMAP
00
00
00
00
00
00
00
00
00
ENDCHAR
STARTCHAR C0054
ENCODING -1 84
SWIDTH 0 0
DWIDTH 0 0
BBX 0 9 0 -1
BITMAP
00
00
00
00
00
00
00
00
00
ENDCHAR
STARTCHAR C0055
ENCODING -1 85
SWIDTH 0 0
DWIDTH 0 0
BBX 0 9 0 -1
BITMAP
00
00
00
00
00
00
00
00
00
ENDCHAR
STARTCHAR C0056
ENCODING -1 86
SWIDTH 0 0
DWIDTH 0 0
BBX 0 9 0 -1
BITMAP
00
00
00
00
00
00
00
00
00
ENDCHAR
STARTCHAR C0057
ENCODING -1 87
SWIDTH 0 0
DWIDTH 0 0
BBX 0 9 0 -1
BITMAP
00
00
00
00
00
00
00
00
00
ENDCHAR
STARTCHAR C0058
ENCODING -1 88
SWIDTH 0 0
DWIDTH 0 0
BBX 0 9 0 -1
BITMAP
00
00
00
00
00
00
00
00
00
ENDCHAR
STARTCHAR C0059
ENCODING -1 89
SWIDTH 0 0
DWIDTH 0 0
BBX 0 9 0 -1
BITMAP
00
00
00
00
00
00
00
00
00
ENDCHAR
STARTCHAR C005A
ENCODING -1 90
SWIDTH 0 0
DWIDTH 0 0
BBX 0 9 0 -1
BITMAP
00
00
00
00
00
00
00
00
00
ENDCHAR
STARTCHAR C005B
ENCODING -1 91
SWIDTH 0 0
DWIDTH 0 0
BBX 0 9 0 -1
BITMAP
00
00
00
00
00
00
00
00
00
ENDCHAR
STARTCHAR C005C
ENCODING -1 92
SWIDTH 0 0
DWIDTH 0 0
BBX 0 9 0 -1
BITMAP
00
00
00
00
00
00
00
00
00
ENDCHAR
STARTCHAR C005D
ENCODING -1 93
SWIDTH 0 0
DWIDTH 0 0
BBX 0 9 0 -1
BITMAP
00
00
00
00
00
00
00
00
00
ENDCHAR
STARTCHAR C005E
ENCODING -1 94
SWIDTH 0 0
DWIDTH 0 0
BBX 0 9 0 -1
BITMAP
00
00
00
00
00
00
00
00
00
ENDCHAR
STARTCHAR C005F
ENCODING -1 95
SWIDTH 0 0
DWIDTH 0 0
BBX 0 9 0 -1
BITMAP
00
00
00
00
00
00
00
00
00
ENDCHAR
STARTCHAR C0060
ENCODING -1 96
SWIDTH 0 0
DWIDTH 0 0
BBX 0 9 0 -1
BITMAP
00
00
00
00
00
00
00
00
00
ENDCHAR
STARTCHAR C0061
ENCODING -1 97
SWIDTH 0 0
DWIDTH 0 0
BBX 0 9 0 -1
BITMAP
00
00
00
00
00
00
00
00
00
ENDCHAR
STARTCHAR C0062
ENCODING -1 98
SWIDTH 0 0
DWIDTH 0 0
BBX 0 9 0 -1
BITMAP
00
00
00
00
00
00
00
00
00
ENDCHAR
STARTCHAR C0063
ENCODING -1 99
SWIDTH 0 0
DWIDTH 0 0
BBX 0 9 0 -1
BITMAP
00
00
00
00
00
00
00
00
00
ENDCHAR
STARTCHAR C0064
ENCODING -1 100
SWIDTH 0 0
DWIDTH 0 0
BBX 0 9 0 -1
BITMAP
00
00
00
00
00
00
00
00
00
ENDCHAR
STARTCHAR C0065
ENCODING -1 101
SWIDTH 0 0
DWIDTH 0 0
BBX 0 9 0 -1
BITMAP
00
00
00
00
00
00
00
00
00
ENDCHAR
STARTCHAR C0066
ENCODING -1 102
SWIDTH 0 0
DWIDTH 0 0
BBX 0 9 0 -1
BITMAP
00
00
00
00
00
00
00
00
00
ENDCHAR
STARTCHAR C0067
ENCODING -1 103
SWIDTH 0 0
DWIDTH 0 0
BBX 0 9 0 -1
BITMAP
00
00
00
00
00
00
00
00
00
ENDCHAR
STARTCHAR C0068
ENCODING -1 104
SWIDTH 0 0
DWIDTH 0 0
BBX 0 9 0 -1
BITMAP
00
00
00
00
00
00
00
00
00
ENDCHAR
STARTCHAR C0069
ENCODING -1 105
SWIDTH 0 0
DWIDTH 0 0
BBX 0 9 0 -1
BITMAP
00
00
00
00
00
00
00
00
00
ENDCHAR
STARTCHAR C006A
ENCODING -1 106
SWIDTH 0 0
DWIDTH 0 0
BBX 0 9 0 -1
BITMAP
00
00
00
00
00
00
00
00
00
ENDCHAR
STARTCHAR C006B
ENCODING -1 107
SWIDTH 0 0
DWIDTH 0 0
BBX 0 9 0 -1
BITMAP
00
00
00
00
00
00
00
00
00
ENDCHAR
STARTCHAR C006C
ENCODING -1 108
SWIDTH 0 0
DWIDTH 0 0
BBX 0 9 0 -1
BITMAP
00
00
00
00
00
00
00
00
00
ENDCHAR
STARTCHAR C006D
ENCODING -1 109
SWIDTH 0 0
DWIDTH 0 0
BBX 0 9 0 -1
BITMAP
00
00
00
00
00
00
00
00
00
ENDCHAR
STARTCHAR C006E
ENCODING -1 110
SWIDTH 0 0
DWIDTH 0 0
BBX 0 9 0 -1
BITMAP
00
00
00
00
00
00
00
00
00
ENDCHAR
STARTCHAR C006F
ENCODING -1 111
SWIDTH 0 0
DWIDTH 0 0
BBX 0 9 0 -1
BITMAP
00
00
00
00
00
00
00
00
00
ENDCHAR
STARTCHAR C0070
ENCODING -1 112
SWIDTH 0 0
DWIDTH 0 0
BBX 0 9 0 -1
BITMAP
00
00
00
00
00
00
00
00
00
ENDCHAR
STARTCHAR C0071
ENCODING -1 113
SWIDTH 0 0
DWIDTH 0 0
BBX 0 9 0 -1
BITMAP
00
00
00
00
00
00
00
00
00
ENDCHAR
STARTCHAR C0072
ENCODING -1 114
SWIDTH 0 0
DWIDTH 0 0
BBX 0 9 0 -1
BITMAP
00
00
00
00
00
00
00
00
00
ENDCHAR
STARTCHAR C0073
ENCODING -1 115
SWIDTH 0 0
DWIDTH 0 0
BBX 0 9 0 -1
BITMAP
00
00
00
00
00
00
00
00
00
ENDCHAR
STARTCHAR C0074
ENCODING -1 116
SWIDTH 0 0
DWIDTH 0 0
BBX 0 9 0 -1
BITMAP
00
00
00
00
00
00
00
00
00
ENDCHAR
STARTCHAR C0075
ENCODING -1 117
SWIDTH 0 0
DWIDTH 0 0
BBX 0 9 0 -1
BITMAP
00
00
00
00
00
00
00
00
00
ENDCHAR
STARTCHAR C0076
ENCODING -1 118
SWIDTH 0 0
DWIDTH 0 0
BBX 0 9 0 -1
BITMAP
00
00
00
00
00
00
00
00
00
ENDCHAR
STARTCHAR C0077
ENCODING -1 119
SWIDTH 0 0
DWIDTH 0 0
BBX 0 9 0 -1
BITMAP
00
00
00
00
00
00
00
00
00
ENDCHAR
STARTCHAR C0078
ENCODING -1 120
SWIDTH 0 0
DWIDTH 0 0
BBX 0 9 0 -1
BITMAP
00
00
00
00
00
00
00
00
00
ENDCHAR
STARTCHAR C0079
ENCODING -1 121
SWIDTH 0 0
DWIDTH 0 0
BBX 0 9 0 -1
BITMAP
00
00
00
00
00
00
00
00
00
ENDCHAR
STARTCHAR C007A
ENCODING -1 122
SWIDTH 0 0
DWIDTH 0 0
BBX 0 9 0 -1
BITMAP
00
00
00
00
00
00
00
00
00
ENDCHAR
STARTCHAR C007B
ENCODING -1 123
SWIDTH 0 0
DWIDTH 0 0
BBX 0 9 0 -1
BITMAP
00
00
00
00
00
00
00
00
00
ENDCHAR
STARTCHAR C007C
ENCODING -1 124
SWIDTH 0 0
DWIDTH 0 0
BBX 0 9 0 -1
BITMAP
00
00
00
00
00
00
00
00
00
ENDCHAR
STARTCHAR C007D
ENCODING -1 125
SWIDTH 0 0
DWIDTH 0 0
BBX 0 9 0 -1
BITMAP
00
00
00
00
00
00
00
00
00
ENDCHAR
STARTCHAR C007E
ENCODING -1 126
SWIDTH 0 0
DWIDTH 0 0
BBX 0 9 0 -1
BITMAP
00
00
00
00
00
00
00
00
00
ENDCHAR
STARTCHAR C007F
ENCODING -1 127
SWIDTH 0 0
DWIDTH 0 0
BBX 0 9 0 -1
BITMAP
00
00
00
00
00
00
00
00
00
ENDCHAR
ENDFONT
